<?xml version="1.0" encoding="UTF-8"?>
<svg version="1.1" xmlns="http://www.w3.org/2000/svg" width="586" height="635">
<path d="M0 0 C193.38 0 386.76 0 586 0 C586 209.55 586 419.1 586 635 C392.62 635 199.24 635 0 635 C0 425.45 0 215.9 0 0 Z " fill="#573E9F" transform="translate(0,0)"/>
<path d="M0 0 C4.85550953 0.69364422 7.18459769 2.043318 10.8125 5.1875 C13.74373615 11.3756652 10.159773 20.22600552 8.4375 26.5 C8.21191406 27.34884766 7.98632812 28.19769531 7.75390625 29.07226562 C6.09158509 35.25432982 6.09158509 35.25432982 4.9375 37.5625 C6.29117188 37.55696924 6.29117188 37.55696924 7.67219067 37.55132675 C29.62178741 37.46302334 51.57135358 37.39681356 73.52109051 37.35525131 C84.1357886 37.33461834 94.7503682 37.30648364 105.36499023 37.26074219 C114.61574676 37.220897 123.86641747 37.19507254 133.11725742 37.18614602 C138.01640209 37.18092735 142.91530124 37.16864626 147.81436729 37.13957977 C152.42477224 37.11244733 157.03483034 37.10405061 161.64530754 37.11006927 C163.33802423 37.10896807 165.03075242 37.10100119 166.72340012 37.0856781 C169.03422245 37.06578347 171.3437343 37.07055794 173.65458679 37.08148193 C175.59450013 37.07595118 175.59450013 37.07595118 177.57360363 37.07030869 C181.50862665 37.64606487 183.14571109 38.78711425 185.9375 41.5625 C187.2018959 44.0912918 187.06635615 45.83422713 187.07172108 48.66610622 C187.07617892 49.75360745 187.08063676 50.84110867 187.08522969 51.96156448 C187.08495315 53.76837121 187.08495315 53.76837121 187.08467102 55.61167908 C187.08834771 56.88377859 187.0920244 58.15587811 187.0958125 59.46652609 C187.1058492 63.00946481 187.109552 66.55238659 187.11220181 70.09533751 C187.11610013 73.91218833 187.12567904 77.72902568 187.13441467 81.54586792 C187.15419635 90.77171428 187.16424916 99.99756177 187.17314246 109.22342405 C187.1775241 113.56791639 187.18289137 117.91240751 187.18813133 122.25689888 C187.20514817 136.70033865 187.21964096 151.14377766 187.22688007 165.58722591 C187.22878999 169.33720335 187.23071031 173.08718079 187.23266602 176.8371582 C187.23314976 177.76920421 187.2336335 178.70125021 187.2341319 179.66154004 C187.24242689 194.75012571 187.26775279 209.83863196 187.30024669 224.92718296 C187.33333606 240.41864099 187.35133068 255.91005871 187.35452431 271.40155226 C187.35668808 280.0991769 187.36541675 288.79668586 187.39098549 297.49427605 C187.41271846 304.9042745 187.42073031 312.31412919 187.41101871 319.7241559 C187.40648098 323.50276714 187.40832893 327.28108195 187.42778015 331.05965233 C187.44872231 335.16346493 187.43840381 339.26662326 187.42524719 343.37046814 C187.44170106 345.14716012 187.44170106 345.14716012 187.45848733 346.95974487 C187.35829621 359.93152227 183.18205802 369.44555091 173.9375 378.5625 C161.94718688 388.23731852 149.16667627 390.16099734 134.26902771 390.07043457 C132.60421059 390.07505091 130.93939755 390.08140872 129.27459294 390.08934355 C124.72799525 390.10595926 120.18173571 390.09782604 115.6351372 390.08539867 C110.72095868 390.07631865 105.80683681 390.09033247 100.89266968 390.10131836 C91.2772277 390.11907631 81.66191084 390.11527585 72.04646402 390.1036678 C64.23028162 390.09462355 56.41413421 390.09341376 48.59794807 390.09776306 C47.48427933 390.09837599 46.37061058 390.09898893 45.22319429 390.09962043 C42.96060473 390.10089937 40.69801518 390.10219622 38.43542565 390.1035108 C17.23473395 390.11490848 -3.96588848 390.10181534 -25.16656881 390.08030933 C-43.34830384 390.06243664 -61.52993673 390.06554547 -79.71166992 390.08398438 C-100.83956026 390.10540116 -121.96738997 390.11381251 -143.09528965 390.10153532 C-145.34911437 390.10026116 -147.6029391 390.09900367 -149.85676384 390.09776306 C-150.96561259 390.09714596 -152.07446134 390.09652886 -153.21691157 390.09589306 C-161.02205442 390.09244277 -168.82715873 390.09826152 -176.63229561 390.10768127 C-186.14643578 390.11891149 -195.66044398 390.11583954 -205.17456908 390.0945583 C-210.02660251 390.08406209 -214.87841608 390.07990175 -219.73044777 390.09315491 C-224.17603082 390.10511405 -228.62119114 390.09845843 -233.06673609 390.0772447 C-234.67086514 390.07279356 -236.27503024 390.07501129 -237.87913591 390.08474785 C-252.05161321 390.164142 -264.47625725 387.27505489 -275.2890625 377.5625 C-282.48475752 370.01645279 -287.17680064 360.72059655 -287.19672108 350.21165562 C-287.20117892 349.1199555 -287.20563676 348.02825538 -287.21022969 346.90347344 C-287.21004533 345.70455953 -287.20986097 344.50564563 -287.20967102 343.270401 C-287.21334771 341.99644279 -287.2170244 340.72248459 -287.2208125 339.40992159 C-287.23082335 335.87131944 -287.23454779 332.33273425 -287.23720181 328.79411995 C-287.24110738 324.97878241 -287.2506853 321.16345826 -287.25941467 317.34812927 C-287.2791682 308.13501539 -287.28924224 298.92190042 -287.29814246 289.70877066 C-287.30252572 285.37147888 -287.3078923 281.03418832 -287.31313133 276.69689751 C-287.33013975 262.28253082 -287.34463568 247.86816489 -287.35188007 233.45378971 C-287.35378999 229.71406618 -287.35571032 225.97434265 -287.35766602 222.23461914 C-287.35814976 221.30512089 -287.3586335 220.37562264 -287.3591319 219.41795778 C-287.36743892 204.34807879 -287.39278888 189.27827902 -287.42524669 174.20843465 C-287.45828812 158.74180254 -287.47632604 143.27521074 -287.47952431 127.80854315 C-287.48169173 119.12231783 -287.49047451 110.43620813 -287.51598549 101.75001717 C-287.53765239 94.35563266 -287.54576262 86.96139188 -287.53601871 79.56697924 C-287.53146278 75.79314806 -287.53343481 72.01961369 -287.55278015 68.24582291 C-287.57355722 64.15753217 -287.56346318 60.06990453 -287.55024719 55.98158264 C-287.56121644 54.78489946 -287.57218568 53.58821628 -287.58348733 52.35526997 C-287.52059811 44.33510495 -287.52059811 44.33510495 -285.1570158 40.34880733 C-282.27214037 37.88844197 -280.76074293 37.43798594 -277.06048965 37.46573448 C-275.7977695 37.47139854 -275.7977695 37.47139854 -274.50953984 37.47717702 C-273.57941477 37.48643071 -272.64928969 37.4956844 -271.690979 37.50521851 C-270.21477778 37.51368677 -270.21477778 37.51368677 -268.7087543 37.52232611 C-266.54258181 37.53529186 -264.37642224 37.55056371 -262.21027946 37.56779289 C-257.45292341 37.60550453 -252.69552247 37.63213199 -247.93809748 37.6595118 C-245.37456642 37.67436743 -242.81103865 37.68979964 -240.24751425 37.70576262 C-230.82100551 37.76342144 -221.39461678 37.79829655 -211.96795654 37.81826782 C-211.28612742 37.81974215 -210.6042983 37.82121647 -209.9018077 37.82273547 C-203.5674345 37.83625536 -197.23305871 37.84815065 -190.89868021 37.85888553 C-186.55240601 37.86632341 -182.2061342 37.87463118 -177.85986328 37.88378906 C-177.13794724 37.88529861 -176.4160312 37.88680815 -175.67223892 37.88836344 C-163.99964778 37.91428017 -152.32787467 37.99018715 -140.65565398 38.08385102 C-128.66143756 38.17886941 -116.66799412 38.2164164 -104.67340636 38.20219004 C-97.94275224 38.19589673 -91.21434955 38.21590174 -84.48419952 38.30308151 C-78.14330757 38.38272739 -71.80617136 38.39148741 -65.46497154 38.34722328 C-63.14543761 38.34334581 -60.82569146 38.36487178 -58.50668526 38.41449928 C-45.1798807 38.95405701 -45.1798807 38.95405701 -33.62837982 33.26346207 C-30.53120986 30.17895366 -27.86616739 26.86332158 -25.33197546 23.3072083 C-23.67959438 21.03625224 -21.80229876 19.03592934 -19.84375 17.02734375 C-18.18919307 15.24888567 -16.53487804 13.4702261 -14.8828125 11.68945312 C-13.8022932 10.52903627 -12.71779125 9.37231047 -11.62866211 8.2199707 C-10.56528504 7.09459784 -9.51167962 5.95992695 -8.46704102 4.81713867 C-4.08315425 0.16239548 -4.08315425 0.16239548 0 0 Z " fill="#FDFDFD" transform="translate(343.0625,179.4375)"/>
<path d="M0 0 C193.38 0 386.76 0 586 0 C586 209.55 586 419.1 586 635 C392.62 635 199.24 635 0 635 C0 425.45 0 215.9 0 0 Z M145 8 C144.0409375 8.72703125 144.0409375 8.72703125 143.0625 9.46875 C136.28583049 15.42754561 132.42549729 24.45334187 130 33 C129.84160012 35.52451932 129.78445228 38.05653464 129.8046875 40.5859375 C129.80893234 41.63861313 129.80893234 41.63861313 129.81326294 42.71255493 C129.82437488 44.93355028 129.84946166 47.15412845 129.875 49.375 C129.88504146 50.88931705 129.89416527 52.40364049 129.90234375 53.91796875 C129.92428446 57.61211258 129.95875125 61.30601551 130 65 C129.3464856 64.98889694 128.69297119 64.97779388 128.01965332 64.96635437 C121.14003343 64.85465043 114.26067624 64.77987814 107.38037109 64.7253418 C104.8219962 64.70039225 102.26369113 64.66642023 99.70556641 64.62280273 C85.31318049 64.38377327 72.37484327 64.18553586 59 70 C57.89188965 70.47695312 56.7837793 70.95390625 55.64208984 71.4453125 C47.98994131 74.89737073 41.48976024 79.72706981 35 85 C34.13375 85.68835938 33.2675 86.37671875 32.375 87.0859375 C16.1923479 100.68947942 4.8773838 122.14127192 2 143 C1.12494643 154.92940804 1.31444032 166.9186607 1.3610357 178.87244093 C1.37452245 183.74706001 1.35893261 188.62160408 1.34721375 193.49621582 C1.32891767 203.02083218 1.33729498 212.54524221 1.35530197 222.06985196 C1.36937451 229.81479469 1.3732108 237.55968172 1.3698597 245.304636 C1.36938225 246.41036198 1.36890481 247.51608797 1.3684129 248.6553208 C1.36738649 250.90211696 1.36633113 253.14891312 1.36524714 255.39570925 C1.35669664 275.22388957 1.3733027 295.05197076 1.40307617 314.88012695 C1.43192124 334.09045573 1.43898938 353.30064182 1.42358398 372.51098633 C1.40679987 393.46904797 1.40280924 414.427042 1.42029434 435.38510543 C1.42213859 437.62234071 1.42397332 439.859576 1.42579842 442.09681129 C1.42671051 443.19736335 1.4276226 444.29791541 1.42856232 445.43181753 C1.43415307 453.16305468 1.43087432 460.89425866 1.42425346 468.625494 C1.41649958 478.05332375 1.42334704 487.48101337 1.4484285 496.90881499 C1.46087457 501.71290619 1.46712973 506.51677976 1.45588684 511.32087898 C1.44576765 515.72821003 1.45446555 520.13510921 1.47746802 524.54238818 C1.48258198 526.12687859 1.48114862 527.71140844 1.47207337 529.29588111 C1.3998671 543.0597939 3.45584035 556.23699974 9.6875 568.6875 C10.0285376 569.3882666 10.3695752 570.0890332 10.72094727 570.81103516 C14.16799029 577.68634902 18.3349024 583.88105349 23 590 C23.7321875 590.96679688 24.464375 591.93359375 25.21875 592.9296875 C40.44269105 612.28124637 64.39919358 626.38855877 89 630 C94.48790647 630.29452076 99.97017734 630.27903159 105.46388245 630.26742554 C107.14316748 630.27116533 108.82245078 630.27576816 110.50173134 630.28115618 C115.10236956 630.29336127 119.70293494 630.29312865 124.30358565 630.29076743 C129.2710714 630.29035863 134.238534 630.30140458 139.20600891 630.31088257 C148.93379452 630.32748058 158.66155589 630.3329916 168.38935447 630.33410732 C176.29995236 630.3350585 184.21054226 630.33917227 192.12113762 630.34550858 C214.56462932 630.3631188 237.0081019 630.37234795 259.45160056 630.37084763 C260.66100255 630.37076772 261.87040454 630.3706878 263.11645508 630.37060547 C264.9327816 630.37048283 264.9327816 630.37048283 266.78580158 630.37035771 C286.40036119 630.36954518 306.01484393 630.388675 325.62938131 630.4168822 C345.78465014 630.44563751 365.93988153 630.45942099 386.09517139 630.45769465 C397.40463726 630.4570316 408.71402258 630.46248662 420.02346992 630.48405075 C429.65463954 630.50229751 439.2856921 630.5065813 448.91687156 630.4930319 C453.8262192 630.48651951 458.73534252 630.48632228 463.64466858 630.5037384 C468.14859596 630.51955125 472.65212269 630.51652239 477.15604078 630.49917014 C478.7758322 630.49611818 480.39565415 630.49966367 482.01540954 630.51089029 C509.29787781 630.68729554 535.46372233 620.09827145 555 601 C576.45802461 578.832874 585.19275904 552.39013668 585.10920715 522.02928162 C585.10837628 520.39139718 585.10797816 518.75351247 585.10797423 517.11562783 C585.10664479 512.62482234 585.09895679 508.13404706 585.09015882 503.64325082 C585.0817289 498.79575497 585.07907969 493.94825522 585.07556152 489.10075378 C585.06573035 477.4005256 585.04609099 465.7003216 585.02530077 454.00010857 C585.01570757 448.48561379 585.00713935 442.97111743 584.99844933 437.45662117 C584.9691536 419.1183601 584.93736764 400.78010599 584.89822865 382.44186306 C584.88810886 377.68674663 584.87799731 372.93163019 584.86791992 368.17651367 C584.86541305 366.99470766 584.86290617 365.81290165 584.86032333 364.59528334 C584.82017745 345.45207895 584.79699534 326.30889372 584.78094129 307.16565549 C584.76417802 287.49742525 584.73245674 267.82926394 584.68605727 248.1610809 C584.66038437 237.12384222 584.64118783 226.0866765 584.63868141 215.04940605 C584.63649563 205.64981596 584.62069606 196.2503715 584.58734892 186.85083818 C584.57075866 182.05910712 584.56047297 177.26758949 584.56765556 172.47583008 C584.5740903 168.08043626 584.56187927 163.68548504 584.53545066 159.2901696 C584.52911365 157.70873827 584.52933682 156.12726246 584.53716633 154.54583781 C584.64822288 129.76546714 575.28193779 107.8200201 558 90 C557.46117187 89.38769531 556.92234375 88.77539062 556.3671875 88.14453125 C545.00038905 75.66390079 525.48186946 66.27943693 508.81834412 64.69805908 C505.36234502 64.56144228 501.91566543 64.50685253 498.45703125 64.48828125 C497.20742111 64.47033005 495.95781097 64.45237885 494.67033386 64.43388367 C491.38743969 64.38923636 488.10473751 64.35675398 484.82165527 64.33044434 C481.45584021 64.30038329 478.09025257 64.25394264 474.72460938 64.20898438 C468.1498458 64.12442225 461.57506622 64.05592635 455 64 C455.00636475 63.04335449 455.01272949 62.08670898 455.01928711 61.10107422 C455.0339441 57.48099832 455.00193171 53.86246471 454.95727539 50.24267578 C454.9443016 48.68934441 454.94324626 47.13585814 454.95532227 45.58251953 C455.0469636 32.08069595 452.28538783 20.60242794 442.671875 10.39453125 C433.50321448 2.74684011 423.62600203 2.20307199 412.14501953 2.7734375 C407.39029446 3.27564384 403.81416555 5.24735845 400 8 C399.35933594 8.4228125 398.71867187 8.845625 398.05859375 9.28125 C392.64042427 13.3068446 389.69025725 18.91599869 387 25 C386.74180481 25.56820969 386.48360962 26.13641937 386.21759033 26.72184753 C383.27333059 34.15901766 383.66491836 41.70725827 383.8125 49.5625 C383.82757889 50.96678247 383.84126161 52.37108066 383.85351562 53.77539062 C383.88865594 57.18400115 383.93785877 60.5917927 384 64 C382.04661713 63.98120789 382.04661713 63.98120789 380.05377197 63.96203613 C363.45256169 63.80286956 346.85130158 63.64933139 330.25 63.5 C328.93044815 63.48812275 327.6108963 63.4762455 326.25135803 63.46400833 C293.08423804 63.16693722 259.91864912 62.89741704 226.75 62.9375 C226.03616653 62.93835602 225.32233307 62.93921204 224.58686829 62.94009399 C216.39121685 62.95071761 208.19560241 62.96937794 200 63 C200.02094727 62.1843457 200.04189453 61.36869141 200.06347656 60.52832031 C200.13248991 57.44193873 200.18220027 54.35595596 200.21972656 51.26904297 C200.2492475 49.30018659 200.30012677 47.33168702 200.3515625 45.36328125 C200.47937355 32.77389278 197.7807985 21.1834896 188.9609375 11.83984375 C181.53080092 4.80547046 174.79053531 2.41907726 164.625 2.5 C163.78936523 2.50572021 162.95373047 2.51144043 162.09277344 2.51733398 C155.43150544 2.71000993 150.38192358 3.87946476 145 8 Z " fill="#FDFDFD" transform="translate(0,0)"/>
<path d="M0 0 C4.64046289 0.92809258 7.10731357 2.32633843 10.625 5.375 C13.60491987 11.66594195 9.87974598 20.73363698 8.14453125 27.1015625 C7.88050003 28.09145172 7.61646881 29.08134094 7.34443665 30.10122681 C6.77753097 32.22387439 6.20774309 34.34575397 5.63531494 36.46691895 C4.74914838 39.75315814 3.87203872 43.04168789 2.99755859 46.33105469 C1.4658775 52.08849849 -0.07392038 57.84373091 -1.61694336 63.59814453 C-2.5523839 67.0872677 -3.48623589 70.57681321 -4.41992188 74.06640625 C-9.30583692 92.3100172 -14.26816612 110.53239352 -19.25 128.75 C-18.09821259 128.74333817 -16.94642517 128.73667633 -15.75973511 128.72981262 C-4.9011192 128.66897707 5.95746209 128.62401555 16.81620979 128.59456348 C22.39870435 128.57891283 27.98106124 128.55768527 33.56347656 128.52368164 C38.95160143 128.49106716 44.33959394 128.47314247 49.72780991 128.46536827 C51.78269407 128.45982855 53.83757106 128.44901082 55.89239883 128.43280983 C58.77233746 128.41100802 61.65173031 128.40803426 64.53173828 128.40942383 C65.37978531 128.398638 66.22783234 128.38785217 67.10157776 128.3767395 C72.04972927 128.40254509 75.48464031 128.96169238 79.75 131.75 C81.828313 134.8674695 82.35666414 136.79957395 82.25219727 140.52612305 C80.46097022 148.45820236 71.35814662 155.35961247 65.75 160.8125 C60.76218766 165.68733337 55.91210584 170.58368556 51.3671875 175.87670898 C48.43384297 179.2745883 45.35030892 182.53416075 42.2890625 185.81640625 C39.59790221 188.71403122 36.95865786 191.64547397 34.3671875 194.6328125 C30.64731127 198.90423546 26.77503662 203.0184384 22.875 207.125 C17.85651562 212.43205439 12.88546096 217.76776456 8.02734375 223.22265625 C4.53883603 227.09412194 0.97344067 230.89352661 -2.58129883 234.70410156 C-6.03514 238.41553981 -9.40061385 242.18704218 -12.7109375 246.02734375 C-14.87775066 248.45263462 -17.19886278 250.70739809 -19.515625 252.98828125 C-21.87009476 255.37987102 -24.04364364 257.90816773 -26.234375 260.44921875 C-29.16315576 263.79234252 -32.18330483 267.05047575 -35.19555664 270.31811523 C-37.8227538 273.17423641 -40.40682777 276.05816592 -42.9375 279 C-45.2742665 281.69927204 -47.70848313 284.24249961 -50.25 286.75 C-52.72963329 289.19663437 -55.10440376 291.67107774 -57.375 294.3125 C-61.39698228 298.98644744 -65.62212815 303.46362441 -69.83862305 307.96118164 C-73.65173845 312.03070055 -77.43277805 316.126611 -81.1875 320.25 C-93.64973163 333.8702266 -93.64973163 333.8702266 -100.0625 334.1875 C-102.82159524 334.15156388 -104.63882099 334.11562806 -107.01953125 332.69140625 C-110.12188332 329.39236327 -110.59867777 326.40906082 -110.48193359 322.03564453 C-110.04111705 317.69151349 -108.74975893 313.60779239 -107.5 309.4375 C-106.85057116 307.19429718 -106.20221735 304.95078297 -105.5546875 302.70703125 C-105.18956055 301.45229004 -104.82443359 300.19754883 -104.44824219 298.90478516 C-102.37023084 291.73026627 -100.38222957 284.53012183 -98.37948608 277.33432007 C-97.61999293 274.60701986 -96.85868907 271.88023085 -96.09692383 269.15356445 C-93.27696412 259.05525327 -90.47492101 248.95216908 -87.69140625 238.84375 C-87.25066772 237.24456223 -87.25066772 237.24456223 -86.80102539 235.61306763 C-85.37337096 230.43278502 -83.94799734 225.25189728 -82.52685547 220.06982422 C-82.00629044 218.17933291 -81.48562492 216.28886928 -80.96484375 214.3984375 C-80.73406631 213.55333618 -80.50328888 212.70823486 -80.26551819 211.83752441 C-78.76728279 206.41161324 -77.08173123 201.07250169 -75.25 195.75 C-76.32883957 195.75888245 -77.40767914 195.76776489 -78.51921082 195.7769165 C-88.68645021 195.85800466 -98.853624 195.91796656 -109.0211134 195.95724869 C-114.24834356 195.97812301 -119.47531266 196.00643808 -124.70239258 196.05175781 C-129.74688088 196.09522071 -134.79111809 196.11913827 -139.83577919 196.12950897 C-141.76032781 196.13689952 -143.6848627 196.15133154 -145.60930443 196.17292023 C-148.30518663 196.20196014 -151.00003147 196.20595577 -153.69604492 196.20410156 C-154.49158279 196.21848267 -155.28712067 196.23286377 -156.10676575 196.24768066 C-159.87268227 196.2196561 -162.01026394 195.90549684 -165.20259094 193.8348999 C-168.24596561 190.73579691 -169.05680443 188.84477488 -169.8125 184.5625 C-168.68650254 176.93073945 -162.33666798 171.66332173 -156.98046875 166.47265625 C-155.25239004 164.75237925 -153.65451067 162.971424 -152.0625 161.125 C-148.94665428 157.51424366 -145.74021857 153.99867558 -142.5 150.5 C-141.98421387 149.94304443 -141.46842773 149.38608887 -140.93701172 148.81225586 C-139.88727343 147.67897495 -138.83746867 146.54575561 -137.78759766 145.41259766 C-135.41291947 142.84486847 -133.04947949 140.2669073 -130.6875 137.6875 C-130.23938965 137.19813965 -129.7912793 136.7087793 -129.32958984 136.20458984 C-128.42558862 135.21731251 -127.52161722 134.23000786 -126.61767578 133.24267578 C-125.22420848 131.72185124 -123.82912249 130.20252676 -122.43359375 128.68359375 C-118.24455669 124.12245625 -114.06565613 119.55401471 -109.9375 114.9375 C-105.49399189 109.98158735 -100.9489607 105.12335266 -96.38549805 100.27807617 C-93.47111249 97.17348597 -90.61046959 94.03729249 -87.8203125 90.8203125 C-83.43331203 85.77361272 -78.81776949 80.95058516 -74.2109375 76.10546875 C-70.38155861 72.06170378 -66.65873682 67.95294843 -63.00976562 63.74609375 C-59.92690367 60.24921815 -56.70885367 56.8808892 -53.5 53.5 C-41.81467006 41.13774667 -41.81467006 41.13774667 -30.5 28.4375 C-27.79711966 25.31631675 -24.93660274 22.41550758 -21.9921875 19.5234375 C-20.20284173 17.70199585 -18.53711468 15.81285721 -16.875 13.875 C-15.66846762 12.49841943 -14.46000994 11.1235248 -13.25 9.75 C-12.53714844 8.92242187 -11.82429687 8.09484375 -11.08984375 7.2421875 C-4.63138493 0.17444011 -4.63138493 0.17444011 0 0 Z " fill="#F7CB23" transform="translate(343.25,179.25)"/>
<path d="M0 0 C4.96084146 4.19326141 6.49648808 11.37143041 7.359375 17.58984375 C7.76602336 30.13494552 3.24059019 41.59858557 -5.25 50.75 C-13.23211269 58.18827644 -23.07763133 63.0238713 -34.0625 63.3125 C-45.51959852 62.8663513 -55.87440208 58.6604741 -64.37890625 50.80859375 C-72.15752428 42.13028014 -77.90051157 30.52073467 -77.3984375 18.6640625 C-76.59387521 13.28453814 -75.07668192 8.02496391 -73 3 C-72.34 2.67 -71.68 2.34 -71 2 C-70.90203125 3.11117187 -70.8040625 4.22234375 -70.703125 5.3671875 C-69.44217496 18.42933663 -67.44730746 29.00319744 -57 38 C-46.93853143 43.98070874 -34.1544067 44.76393223 -22.83984375 42.31640625 C-13.18076038 38.71850966 -7.44204407 32.15658329 -3.0625 23.05078125 C-0.16026292 15.72542323 -0.27668875 7.77590794 0 0 Z " fill="#F7F6FA" transform="translate(455,109)"/>
<path d="M0 0 C0.33 0 0.66 0 1 0 C1.03738281 1.01578125 1.07476562 2.0315625 1.11328125 3.078125 C1.64761318 15.14696107 2.24835995 27.75402045 11 37 C20.29178982 44.12983872 29.47611238 45.86059371 41 45 C50.99314233 43.33664211 58.52230062 39.64629916 64.578125 31.453125 C68.85514329 24.07409344 70.6121047 17.98074042 70.75 9.4375 C70.79447266 8.06754883 70.79447266 8.06754883 70.83984375 6.66992188 C70.9096885 4.44653077 70.96279745 2.22413532 71 0 C78.3495774 8.80734482 78.91750352 17.92290914 78.20703125 29.046875 C77.73186869 33.52954065 76.24323986 37.13441703 74 41 C73.525625 41.83917969 73.05125 42.67835938 72.5625 43.54296875 C65.94644689 54.05549544 55.57478683 60.72905697 43.5625 63.578125 C31.41345717 65.5782723 21.01622588 62.81510303 11.05859375 55.6796875 C3.36966855 49.40599142 -3.32105565 39.96296645 -5 30 C-5.74331144 19.17933516 -4.94545581 9.89091161 0 0 Z " fill="#F9F8FB" transform="translate(129,108)"/>
<path d="M0 0 C3.54337443 2.97965577 6.65477765 6.12205529 8.75 10.3125 C9.25134255 16.75282357 9.72948918 22.92093401 5.75 28.3125 C1.18484041 32.97910758 -2.8764109 35.84945836 -9.4375 36.75 C-15.35464997 36.07098279 -20.73913968 33.87483582 -24.96484375 29.5625 C-28.90638089 24.26141817 -29.69074933 19.81355264 -29.25 13.3125 C-26.90287189 6.14758261 -22.9366332 1.74154267 -16.25 -1.6875 C-10.60486417 -3.45967362 -5.19875908 -2.69935568 0 0 Z " fill="#573D9F" transform="translate(336.25,488.6875)"/>
<path d="M0 0 C5.36301312 3.2157917 9.13947907 7.28999334 11.640625 13.05859375 C12.6669855 20.26977593 10.77485904 25.70479739 6.890625 31.80859375 C2.73816442 35.96105433 -1.51776976 37.23051824 -7.234375 37.62109375 C-13.11551292 37.43282562 -17.05872285 34.92918069 -21.359375 31.05859375 C-25.72702071 26.02735546 -26.72180821 21.12016182 -26.63671875 14.625 C-26.05822222 9.27187009 -23.29911747 5.6868035 -19.296875 2.18359375 C-13.76812151 -1.81593005 -6.39912091 -2.55329162 0 0 Z " fill="#573E9F" transform="translate(194.359375,487.94140625)"/>
<path d="M0 0 C5.58767081 3.00874582 9.09629508 5.62894392 11.25 11.75 C12.18677459 18.55875193 11.30393742 24.13204352 7.25 29.75 C2.91541941 34.53508476 -1.7934078 36.42148976 -8.125 37.125 C-14.05945874 36.51109048 -18.69897164 34.29957404 -22.625 29.75 C-26.87640562 23.7480156 -27.73459511 19.08878626 -26.75 11.75 C-24.55706778 6.07472907 -21.09882636 2.65697085 -15.75 -0.25 C-10.33834655 -2.05388448 -5.38812737 -1.79604246 0 0 Z " fill="#563D9F" transform="translate(406.75,488.25)"/>
<path d="M0 0 C5.85673338 3.16821387 8.61465406 8.03199686 10.67578125 14.234375 C11.75405827 19.47308369 10.49679 23.83026072 7.94140625 28.41015625 C4.62170394 33.19503581 0.38292058 35.95318046 -5.32421875 37.234375 C-11.28353173 37.89652089 -15.4584502 36.56681313 -20.32421875 33.234375 C-23.91099035 29.84686849 -26.9350898 25.8949311 -27.66015625 20.9375 C-27.75663373 14.87871405 -27.07332107 10.13872397 -23.32421875 5.234375 C-16.76202744 -0.7610816 -8.63076895 -2.84307683 0 0 Z " fill="#573E9F" transform="translate(122.32421875,337.765625)"/>
<path d="M0 0 C5.37260136 2.38782283 9.05125335 6.00094421 11.69921875 11.296875 C12.18809607 17.09928778 12.55467313 22.45435786 10.07421875 27.796875 C5.69015421 32.41167978 2.17137207 35.85974723 -4.37890625 36.5 C-9.84573856 36.61798919 -14.48383442 36.022829 -19.30078125 33.296875 C-23.85627582 28.8645019 -26.04092085 23.63561861 -26.73828125 17.359375 C-26.45379923 11.70255944 -24.47076086 7.41283023 -20.41796875 3.4609375 C-14.05660938 -1.39558417 -7.66023464 -2.34098851 0 0 Z " fill="#563D9F" transform="translate(406.30078125,412.703125)"/>
<path d="M0 0 C5.30215995 2.44325153 8.97399831 6.05346536 11.60546875 11.31640625 C12.1072544 17.76242193 12.56776149 23.90127284 8.60546875 29.31640625 C3.58571279 34.33616221 -0.86815543 35.93171071 -7.83203125 36.69140625 C-15.12907731 35.92329614 -19.69730748 32.58903152 -24.265625 27 C-27.0824576 22.79911816 -26.82368357 18.16663714 -26.39453125 13.31640625 C-24.6246823 7.1739893 -21.44538261 3.94328265 -16.39453125 0.31640625 C-11.7172246 -2.02224708 -4.92062986 -1.40474751 0 0 Z " fill="#573D9F" transform="translate(405.39453125,262.68359375)"/>
<path d="M0 0 C4.79240118 2.73021643 8.96613704 7.05442359 10.6875 12.375 C11.34338027 18.82448933 10.27455539 23.90056954 6.6875 29.375 C1.17850488 34.64610669 -4.15292365 35.73410054 -11.51953125 35.65625 C-16.82832175 35.12165851 -19.9561843 32.80463006 -23.625 28.9375 C-27.42449885 23.16789063 -27.99318352 18.19281394 -27.3125 11.375 C-25.53234261 5.9298127 -21.924239 2.59273607 -17.3125 -0.625 C-11.58405171 -2.53448276 -5.53687495 -2.53685715 0 0 Z " fill="#573D9F" transform="translate(480.3125,338.625)"/>
<path d="M0 0 C5.32115967 2.79809295 9.96194652 7.6475583 11.86328125 13.3515625 C12.64800029 19.8737355 11.64362359 24.93879961 7.86328125 30.3515625 C3.34568052 34.75332731 -1.2253494 36.6364999 -7.51171875 36.7265625 C-12.98641614 36.60146861 -15.81195732 35.72487642 -20.13671875 32.3515625 C-25.0966549 26.78455084 -26.47676653 21.9783075 -26.34375 14.58984375 C-25.86100696 9.37075389 -23.36532264 6.37207467 -19.57421875 3.0390625 C-13.93204851 -1.58387699 -7.03923887 -2.1362224 0 0 Z " fill="#563D9F" transform="translate(194.13671875,262.6484375)"/>
<path d="M0 0 C5.06358941 2.99779866 9.14494539 6.76645328 11.80859375 12.09375 C12.49771356 19.53850339 12.44255592 25.0821234 7.80859375 31.09375 C2.77724292 35.86708284 -1.98173896 37.64411607 -8.8515625 37.47265625 C-15.68538959 36.36600979 -20.27017749 31.44088012 -24.19140625 26.09375 C-26.30228442 21.87199366 -25.69690513 16.67770579 -25.19140625 12.09375 C-23.0647052 6.39199114 -19.5293794 2.99482237 -14.19140625 0.09375 C-9.44244366 -1.48923753 -4.71697839 -1.95069338 0 0 Z " fill="#563D9E" transform="translate(193.19140625,412.90625)"/>
<path d="M0 0 C4.59433484 2.78222668 8.26931297 7.1126264 9.9609375 12.1875 C10.7588482 18.60498174 10.18293804 23.19598656 6.38671875 28.5 C2.67409709 32.89411659 -1.34535017 35.65577558 -7.07421875 36.48046875 C-14.95059538 36.98034171 -19.16136076 33.52563267 -25.0390625 28.75 C-28.190946 24.67171831 -27.5509148 19.53866179 -27.5078125 14.625 C-26.82885705 9.64599337 -25.13732774 5.56334469 -21.1015625 2.4375 C-14.28726337 -2.56892385 -7.89082205 -3.24365808 0 0 Z " fill="#573E9F" transform="translate(481.0390625,263.8125)"/>
<path d="M0 0 C4.55633028 2.56346806 8.05261522 5.99346899 9.52734375 11.11328125 C10.28095329 17.55794212 10.49105426 23.69621022 6.52734375 29.11328125 C2.40154525 33.23907975 -1.75655582 36.39359006 -7.72265625 36.42578125 C-13.28680084 36.26132377 -18.08046597 35.31305623 -22.26953125 31.4609375 C-27.20287851 25.90504879 -27.83985463 21.48555007 -27.7421875 14.125 C-27.28092558 8.97089945 -25.66407623 6.22393637 -21.8828125 2.58203125 C-15.60271179 -2.19774942 -7.3368528 -2.63106728 0 0 Z " fill="#573D9F" transform="translate(481.47265625,412.88671875)"/>
<path d="M0 0 C3.95478251 2.91900614 7.41112181 6.50974362 9.625 10.9375 C10.34406778 18.18981222 10.53165834 24.41073387 6.0546875 30.41796875 C1.95780759 34.77230286 -2.82125813 36.05167069 -8.625 36.25 C-13.60833281 36.16803729 -17.37343278 34.9277779 -21.375 31.9375 C-26.35538013 26.6110885 -27.77474716 21.50988846 -27.64453125 14.3125 C-27.09050213 9.43062022 -25.23417057 5.77879393 -21.75 2.328125 C-15.27036098 -2.47760727 -7.48513618 -2.35643176 0 0 Z " fill="#563D9E" transform="translate(480.375,488.0625)"/>
<path d="M0 0 C5.73664529 2.67050729 9.50685484 7.21119515 12 13 C12.83663633 18.87818511 12.01811869 23.83999063 9 29 C3.93361904 34.19538603 0.58147327 36.16556119 -6.75 36.3125 C-12.36782731 36.2665464 -15.819938 36.07006036 -20 32 C-24.48566947 27.14052474 -26.51540294 22.83834723 -26.3125 16.1171875 C-25.52303553 10.76856569 -22.95605675 6.54340135 -18.875 3.0625 C-13.00329575 -1.14980957 -7.06275536 -0.57917812 0 0 Z " fill="#563C9E" transform="translate(121,413)"/>
<path d="M0 0 C4.54453616 2.85147367 8.20491768 6.84255559 9.828125 12.05859375 C11.20318278 19.48689503 9.29915819 24.83788041 5.1875 31 C0.10486022 35.25282104 -4.08041972 36.38761866 -10.66015625 36.27734375 C-15.91766413 35.59987903 -20.21278409 33.00594591 -23.6875 29.0625 C-27.25004719 23.92824081 -28.94363964 19.32038852 -27.8125 13 C-22.52278721 0.69517453 -12.68765404 -3.32790926 0 0 Z " fill="#563D9F" transform="translate(122.8125,488)"/>
<path d="M0 0 C4.9961892 2.83184813 7.89529949 7.06089848 9.6875 12.4375 C10.47297614 18.96596562 9.46141152 24.01634371 5.6875 29.4375 C1.18134194 33.94365806 -3.53471627 35.50773653 -9.8125 35.75 C-14.85753009 35.59788854 -18.35096767 34.42665954 -21.9765625 30.75 C-27.05439053 24.97427143 -27.66689223 21.46715076 -27.58984375 13.7109375 C-27.19694206 9.07359075 -26.23614069 7.05358191 -23.3125 3.4375 C-16.34686079 -1.96442429 -8.27462354 -3.68110629 0 0 Z " fill="#563D9E" transform="translate(123.3125,263.5625)"/>
<path d="M0 0 C79.86 0 159.72 0 242 0 C240.68 1.65 239.36 3.3 238 5 C237.67 4.01 237.34 3.02 237 2 C158.79 1.67 80.58 1.34 0 1 C0 0.67 0 0.34 0 0 Z " fill="#EBE7F1" transform="translate(62,217)"/>
<path d="M0 0 C0.33 0.99 0.66 1.98 1 3 C0.36707031 3.75152344 -0.26585937 4.50304687 -0.91796875 5.27734375 C-3.49544733 8.64789266 -3.45310349 10.37833409 -3.3125 14.5625 C-3.28800781 15.67753906 -3.26351562 16.79257812 -3.23828125 17.94140625 C-3.04330491 20.44413537 -2.71961406 22.607137 -2 25 C-4.76615162 22.4743833 -5.83216391 20.57380725 -6.23828125 16.765625 C-6.42187986 10.5425984 -5.60897588 7.09502477 -2 2 C-1.34 1.34 -0.68 0.68 0 0 Z " fill="#4A2F98" transform="translate(174,491)"/>
<path d="M0 0 C0 0.33 0 0.66 0 1 C-0.79664063 1.08636719 -1.59328125 1.17273438 -2.4140625 1.26171875 C-9.16317198 2.15667366 -13.27030552 3.00754472 -18 8 C-18.33 7.01 -18.66 6.02 -19 5 C-12.78476975 0.01356885 -7.84540858 -0.64897681 0 0 Z " fill="#472B97" transform="translate(477,412)"/>
<path d="M0 0 C0 0.33 0 0.66 0 1 C-1.98 1.33 -3.96 1.66 -6 2 C-6 2.33 -6 2.66 -6 3 C-10.40914783 4.10228696 -14.48382401 4.07654536 -19 4 C-13.06147771 0.04098514 -6.91895619 -0.24710558 0 0 Z " fill="#705AAE" transform="translate(83,65)"/>
<path d="M0 0 C4.59306496 1.4859916 7.43569245 3.85014682 11 7 C10.34 7.66 9.68 8.32 9 9 C8.51789063 8.57847656 8.03578125 8.15695312 7.5390625 7.72265625 C6.90742188 7.17480469 6.27578125 6.62695312 5.625 6.0625 C4.99851562 5.51722656 4.37203125 4.97195312 3.7265625 4.41015625 C2.04367666 2.93041376 2.04367666 2.93041376 0 2 C0 1.34 0 0.68 0 0 Z " fill="#5D45A3" transform="translate(434,6)"/>
<path d="M0 0 C1.27617187 0.00483398 1.27617187 0.00483398 2.578125 0.00976562 C3.46757812 0.01814453 4.35703125 0.02652344 5.2734375 0.03515625 C6.170625 0.03966797 7.0678125 0.04417969 7.9921875 0.04882812 C10.21100398 0.06063034 12.42968768 0.0770947 14.6484375 0.09765625 C14.6484375 0.42765625 14.6484375 0.75765625 14.6484375 1.09765625 C12.84246094 1.18853516 12.84246094 1.18853516 11 1.28125 C9.42446673 1.36565357 7.84894654 1.45030166 6.2734375 1.53515625 C5.479375 1.57447266 4.6853125 1.61378906 3.8671875 1.65429688 C-0.37757471 1.78659029 -0.37757471 1.78659029 -4.3515625 3.09765625 C-5.0115625 2.43765625 -5.6715625 1.77765625 -6.3515625 1.09765625 C-4.00303722 -0.07660639 -2.61382185 -0.01742548 0 0 Z " fill="#715CAE" transform="translate(159.3515625,2.90234375)"/>
<path d="M0 0 C4.37859255 0.50522222 6.81651224 3.17827222 10 6 C9.34 6.66 8.68 7.32 8 8 C6.66372225 6.85760183 5.33104612 5.71098945 4 4.5625 C3.2575 3.92441406 2.515 3.28632812 1.75 2.62890625 C1.1725 2.09136719 0.595 1.55382812 0 1 C0 0.67 0 0.34 0 0 Z " fill="#5E46A4" transform="translate(544,80)"/>
<path d="M0 0 C2.631724 2.45627573 4.81527263 4.55352037 6 8 C5.625 10.25 5.625 10.25 5 12 C5 11.01 5 10.02 5 9 C4.34 9 3.68 9 3 9 C0 3.375 0 3.375 0 0 Z " fill="#6850A8" transform="translate(485,416)"/>
<path d="M0 0 C0.33 0.66 0.66 1.32 1 2 C-1.65654657 5.73884332 -3.58110387 7.64978174 -8 9 C-7.04270084 7.87411986 -6.08412105 6.7493285 -5.125 5.625 C-4.59132813 4.99851563 -4.05765625 4.37203125 -3.5078125 3.7265625 C-2.38567993 2.44163349 -1.20628025 1.20628025 0 0 Z " fill="#E4C433" transform="translate(318,202)"/>
<path d="M0 0 C0.66 0.33 1.32 0.66 2 1 C-0.31 3.64 -2.62 6.28 -5 9 C-5.33 8.01 -5.66 7.02 -6 6 C-4.02 4.02 -2.04 2.04 0 0 Z " fill="#F5D61F" transform="translate(337,182)"/>
<path d="M0 0 C0.99 0.33 1.98 0.66 3 1 C-0.465 3.97 -0.465 3.97 -4 7 C-4 6.01 -4 5.02 -4 4 C-3.34 4 -2.68 4 -2 4 C-1.34 2.68 -0.68 1.36 0 0 Z " fill="#674FA7" transform="translate(554,598)"/>
<path d="M0 0 C-1.98 0.33 -3.96 0.66 -6 1 C-6 1.66 -6 2.32 -6 3 C-7.32 3.33 -8.64 3.66 -10 4 C-10.33 3.34 -10.66 2.68 -11 2 C-3.57142857 -1.57142857 -3.57142857 -1.57142857 0 0 Z " fill="#7662B0" transform="translate(414,4)"/>
<path d="M0 0 C0.66 0 1.32 0 2 0 C3.60725635 3.21451269 3.05748185 6.43612536 3 10 C2.67 10 2.34 10 2 10 C0.68373308 6.38026598 0 3.90432869 0 0 Z " fill="#7E68B4" transform="translate(488,349)"/>
</svg>
